<?xml version="1.0" encoding="UTF-8" standalone="no"?>
<svg
   width="512"
   height="512"
   viewBox="0 0 512 512"
   version="1.1"
   id="svg14"
   sodipodi:docname="monologo.svg"
   inkscape:export-filename="monologo.svg"
   inkscape:export-xdpi="96"
   inkscape:export-ydpi="96"
   xmlns:inkscape="http://www.inkscape.org/namespaces/inkscape"
   xmlns:sodipodi="http://sodipodi.sourceforge.net/DTD/sodipodi-0.dtd"
   xmlns="http://www.w3.org/2000/svg"
   xmlns:svg="http://www.w3.org/2000/svg">
  <defs
     id="defs14" />
  <sodipodi:namedview
     id="namedview14"
     pagecolor="#ffffff"
     bordercolor="#000000"
     borderopacity="0"
     inkscape:showpageshadow="false"
     inkscape:pageopacity="0.0"
     inkscape:pagecheckerboard="true"
     inkscape:deskcolor="#d1d1d1"
     showborder="false"
     borderlayer="false"
     inkscape:antialias-rendering="false">
    <inkscape:page
       x="0"
       y="0"
       width="512"
       height="512"
       id="page2"
       margin="0"
       bleed="0" />
  </sodipodi:namedview>
  <!-- Person -->
  <ellipse
     cx="151.09619"
     cy="42.323029"
     fill="#ffffff"
     id="circle1"
     rx="39.615181"
     ry="38.711384"
     style="stroke-width:1.08779" />
  <path
     d="m 74.308916,133.45218 c 0,-37.355363 33.479674,-68.484838 78.119224,-68.484838 44.63956,0 78.11922,31.129475 78.11922,68.484838 l 0.49941,38.61038 -156.737854,-0.90379 z"
     fill="#ffffff"
     id="path1"
     style="stroke-width:1.47353"
     sodipodi:nodetypes="sssccs" />
  <!-- Checkmark -->
  <!-- Table grid -->
  <line
     x1="22.6103"
     y1="183.42807"
     x2="22.6103"
     y2="508.3707"
     stroke="#ffffff"
     stroke-width="15.1679"
     id="line2" />
  <line
     x1="253.10213"
     y1="189.58606"
     x2="253.10213"
     y2="501.87549"
     stroke="#ffffff"
     stroke-width="14.8697"
     id="line2-7" />
  <line
     x1="491.9472"
     y1="185.60373"
     x2="491.9472"
     y2="509.19061"
     stroke="#ffffff"
     stroke-width="13.8174"
     id="line2-7-2" />
  <line
     x1="23.336523"
     y1="189.95906"
     x2="497.2641"
     y2="189.95906"
     stroke="#ffffff"
     stroke-width="13.3313"
     id="line6-2" />
  <line
     x1="16.78376"
     y1="504.97595"
     x2="498.84549"
     y2="504.97595"
     stroke="#ffffff"
     stroke-width="13.4452"
     id="line6-2-34" />
  <line
     x1="23.346865"
     y1="296.4812"
     x2="495.46689"
     y2="296.4812"
     stroke="#ffffff"
     stroke-width="13.3058"
     id="line6-2-5" />
  <line
     x1="24.819063"
     y1="400.73187"
     x2="494.67957"
     y2="400.73187"
     stroke="#ffffff"
     stroke-width="14.8407"
     id="line6-2-3" />
  <!-- Table marks -->
  <path
     d="m 336.93554,426.05291 62.44668,58.3796 m 0,-58.3796 -62.44668,58.3796"
     fill="none"
     stroke="#ffffff"
     stroke-width="18.8684"
     stroke-linecap="round"
     stroke-linejoin="round"
     id="path10" />
  <path
     d="m 101.37348,249.00963 19.37917,19.85809 50.38583,-51.63105"
     fill="none"
     stroke="#ffffff"
     stroke-width="19.6172"
     stroke-linecap="round"
     stroke-linejoin="round"
     id="path7-9" />
  <path
     d="m 102.67973,355.47652 19.37917,19.85809 50.38583,-51.63105"
     fill="none"
     stroke="#ffffff"
     stroke-width="19.6172"
     stroke-linecap="round"
     stroke-linejoin="round"
     id="path7-9-6" />
  <path
     d="m 103.13164,459.73601 19.37917,19.85809 50.38583,-51.63105"
     fill="none"
     stroke="#ffffff"
     stroke-width="19.6172"
     stroke-linecap="round"
     stroke-linejoin="round"
     id="path7-9-5" />
  <path
     d="m 333.85803,248.06259 19.37917,19.85809 50.38583,-51.63105"
     fill="none"
     stroke="#ffffff"
     stroke-width="19.6172"
     stroke-linecap="round"
     stroke-linejoin="round"
     id="path7-9-61" />
  <path
     d="m 334.79095,353.47299 19.37917,19.85809 50.38583,-51.63105"
     fill="none"
     stroke="#ffffff"
     stroke-width="19.6172"
     stroke-linecap="round"
     stroke-linejoin="round"
     id="path7-9-9" />
  <path
     id="path3"
     style="display:inline;opacity:1;fill:#ffffff;stroke-width:1.03115"
     d="M 356.32031 11.539062 C 314.89895 11.539062 281.32031 45.117706 281.32031 86.539062 C 281.32031 127.96042 314.89895 161.53906 356.32031 161.53906 C 397.74167 161.53906 431.32031 127.96042 431.32031 86.539062 C 431.32031 45.117707 397.74167 11.539062 356.32031 11.539062 z M 393.86914 45.076172 A 12.5 12.5 0 0 1 401.44727 47.748047 A 12.5 12.5 0 0 1 403.54883 65.300781 L 354.22852 128.03906 A 12.50125 12.50125 0 0 1 335.00977 128.56055 L 304.70508 94.056641 A 12.5 12.5 0 0 1 305.84961 76.416016 A 12.5 12.5 0 0 1 323.49023 77.558594 L 343.86914 100.76367 L 383.89453 49.849609 A 12.5 12.5 0 0 1 392.23633 45.164062 A 12.5 12.5 0 0 1 393.86914 45.076172 z " />
</svg>
