<?xml version="1.0" encoding="UTF-8" standalone="no"?>
<svg
   width="483.82956"
   height="508.09122"
   viewBox="0 0 483.82956 508.09122"
   version="1.1"
   id="svg14"
   sodipodi:docname="monologo.svg"
   inkscape:export-filename="monologo.svg"
   inkscape:export-xdpi="96"
   inkscape:export-ydpi="96"
   xmlns:inkscape="http://www.inkscape.org/namespaces/inkscape"
   xmlns:sodipodi="http://sodipodi.sourceforge.net/DTD/sodipodi-0.dtd"
   xmlns="http://www.w3.org/2000/svg"
   xmlns:svg="http://www.w3.org/2000/svg">
  <defs
     id="defs14" />
  <sodipodi:namedview
     id="namedview14"
     pagecolor="#ffffff"
     bordercolor="#000000"
     borderopacity="0"
     inkscape:showpageshadow="false"
     inkscape:pageopacity="0.0"
     inkscape:pagecheckerboard="true"
     inkscape:deskcolor="#d1d1d1"
     showborder="false"
     borderlayer="false"
     inkscape:antialias-rendering="false">
    <inkscape:page
       x="0"
       y="0"
       width="483.82956"
       height="508.09122"
       id="page1"
       margin="0"
       bleed="0" />
  </sodipodi:namedview>
  <!-- Person -->
  <ellipse
     cx="136.06984"
     cy="38.711384"
     fill="#ffffff"
     id="circle1"
     rx="39.615181"
     ry="38.711384"
     style="fill:#000000;fill-opacity:1;stroke-width:1.08779" />
  <path
     d="M 59.282566,129.84054 C 59.890561,92.49012 92.76224,61.355697 137.40179,61.355697 c 44.63956,0 78.11922,31.129475 78.11922,68.484843 l 0.49941,38.61038 -157.372303,0.36511 z"
     fill="#ffffff"
     id="path1"
     style="fill:#000000;fill-opacity:1;stroke-width:1.47353"
     sodipodi:nodetypes="sssccs" />
  <!-- Checkmark -->
  <!-- Table grid -->
  <line
     x1="7.58395"
     y1="179.81642"
     x2="7.58395"
     y2="504.75906"
     stroke="#ffffff"
     stroke-width="15.1679"
     id="line2"
     style="stroke:#000000;stroke-opacity:1" />
  <line
     x1="238.07578"
     y1="185.97441"
     x2="238.07578"
     y2="498.26385"
     stroke="#ffffff"
     stroke-width="14.8697"
     id="line2-7"
     style="stroke:#000000;stroke-opacity:1" />
  <line
     x1="476.92087"
     y1="181.99208"
     x2="476.92087"
     y2="505.57898"
     stroke="#ffffff"
     stroke-width="13.8174"
     id="line2-7-2"
     style="stroke:#000000;stroke-opacity:1" />
  <line
     x1="8.310173"
     y1="186.34741"
     x2="482.23776"
     y2="186.34741"
     stroke="#ffffff"
     stroke-width="13.3313"
     id="line6-2"
     style="stroke:#000000;stroke-opacity:1" />
  <line
     x1="1.122961"
     y1="501.36432"
     x2="483.81915"
     y2="501.36432"
     stroke="#ffffff"
     stroke-width="13.4452"
     id="line6-2-34"
     style="stroke:#000000;stroke-width:13.4538;stroke-dasharray:none;stroke-opacity:1" />
  <line
     x1="8.3205147"
     y1="292.86957"
     x2="480.44055"
     y2="292.86957"
     stroke="#ffffff"
     stroke-width="13.3058"
     id="line6-2-5"
     style="stroke:#000000;stroke-opacity:1" />
  <line
     x1="9.7927132"
     y1="397.12024"
     x2="479.65323"
     y2="397.12024"
     stroke="#ffffff"
     stroke-width="14.8407"
     id="line6-2-3"
     style="stroke:#000000;stroke-opacity:1" />
  <!-- Table marks -->
  <path
     d="m 321.90919,422.44127 62.44668,58.3796 m 0,-58.3796 -62.44668,58.3796"
     fill="none"
     stroke="#ffffff"
     stroke-width="18.8684"
     stroke-linecap="round"
     stroke-linejoin="round"
     id="path10"
     style="stroke:#000000;stroke-opacity:1" />
  <path
     d="m 86.34713,245.39799 19.37917,19.85809 50.38583,-51.63105"
     fill="none"
     stroke="#ffffff"
     stroke-width="19.6172"
     stroke-linecap="round"
     stroke-linejoin="round"
     id="path7-9"
     style="stroke:#000000;stroke-opacity:1" />
  <path
     d="m 87.65338,351.86488 19.37917,19.85809 50.38583,-51.63105"
     fill="none"
     stroke="#ffffff"
     stroke-width="19.6172"
     stroke-linecap="round"
     stroke-linejoin="round"
     id="path7-9-6"
     style="stroke:#000000;stroke-opacity:1" />
  <path
     d="m 88.10529,456.12437 19.37917,19.85809 50.38583,-51.63105"
     fill="none"
     stroke="#ffffff"
     stroke-width="19.6172"
     stroke-linecap="round"
     stroke-linejoin="round"
     id="path7-9-5"
     style="stroke:#000000;stroke-opacity:1" />
  <path
     d="m 318.83168,244.45095 19.37917,19.85809 50.38583,-51.63105"
     fill="none"
     stroke="#ffffff"
     stroke-width="19.6172"
     stroke-linecap="round"
     stroke-linejoin="round"
     id="path7-9-61"
     style="stroke:#000000;stroke-opacity:1" />
  <path
     d="m 319.7646,349.86135 19.37917,19.85809 50.38583,-51.63105"
     fill="none"
     stroke="#ffffff"
     stroke-width="19.6172"
     stroke-linecap="round"
     stroke-linejoin="round"
     id="path7-9-9"
     style="stroke:#000000;stroke-opacity:1" />
  <path
     id="path3"
     style="display:inline;opacity:1;fill:#000000;fill-opacity:1;stroke-width:1.03115"
     d="m 341.29396,7.9274173 c -41.42136,0 -75,33.5786437 -75,74.9999997 0,41.421363 33.57864,75.000003 75,75.000003 41.42136,0 75,-33.57864 75,-75.000003 0,-41.421355 -33.57864,-74.9999997 -75,-74.9999997 z m 37.54883,33.5371097 a 12.5,12.5 0 0 1 7.57813,2.671875 12.5,12.5 0 0 1 2.10156,17.552734 l -49.32031,62.738284 a 12.50125,12.50125 0 0 1 -19.21875,0.52149 L 289.67873,90.444996 a 12.5,12.5 0 0 1 1.14453,-17.640625 12.5,12.5 0 0 1 17.64062,1.142578 l 20.37891,23.205076 40.02539,-50.914061 a 12.5,12.5 0 0 1 8.3418,-4.685547 12.5,12.5 0 0 1 1.63281,-0.08789 z" />
  <path
     d="M 59.282566,129.84054 C 59.890557,92.49012 92.76224,61.355697 137.40179,61.355697 c 44.63956,0 78.11922,31.129475 78.11922,68.484843 l 0.49964,38.97582 H 58.648117 Z"
     fill="#ffffff"
     id="path2"
     style="fill:#000000;fill-opacity:1;stroke-width:1.474;stroke-dasharray:none"
     sodipodi:nodetypes="sssccs" />
</svg>
